<?xml version="1.0" encoding="UTF-8"?>
<svg xmlns="http://www.w3.org/2000/svg" version="1.1" viewBox="0 0 333.15 67.65">
  <!-- Generator: Adobe Illustrator 29.3.1, SVG Export Plug-In . SVG Version: 2.1.0 Build 151)  -->
  <defs>
    <style>
      .st0 {
        fill: #fff;
      }

      .st1 {
        fill: #ed1c24;
      }

      .st2 {
        fill: #034ea2;
      }
    </style>
  </defs>
  <g>
    <path class="st2" d="M112.8,28.55c-1.01,0-1.89.53-2.4,1.33v-5.45h-5.58v22.48h-18.64v-4.07h-5.58v4.11c0,2.33,1.9,4.23,4.24,4.23h25.55v-3.97h0v-14.31c.5.8,1.38,1.33,2.4,1.33,1.57,0,2.84-1.27,2.84-2.84s-1.27-2.84-2.84-2.84Z"/>
    <path class="st2" d="M150.37,29.65v-.13c0-2.34-1.9-4.23-4.24-4.23h-2.73s-22.48,0-22.48,0v4.27s23.88,0,23.88,0v3.47h-25.64v4.27h14.26c-.37.48-.6,1.07-.6,1.72s.24,1.28.63,1.77h-12.53s0,4.27,0,4.27h23.88v6.14h5.58v-6.04s0-.13,0-.13c0-2.34-1.89-4.23-4.23-4.23h-8.27c.39-.49.63-1.1.63-1.77s-.23-1.24-.6-1.72h14.26v-4.27h-1.79v-3.37Z"/>
    <path class="st2" d="M267.61,29.65v-.13c0-2.34-1.9-4.23-4.24-4.23h-2.73s-22.48,0-22.48,0v4.27h23.88v4.93h-8.55c.32-.44.52-.99.52-1.58,0-1.49-1.21-2.7-2.7-2.7s-2.7,1.21-2.7,2.7c0,.59.2,1.13.52,1.58h-12.74v4.27h11.08c-1.41,1.4-2.28,3.33-2.28,5.48,0,4.26,3.45,7.72,7.71,7.72s7.71-3.45,7.71-7.72c0-2.14-.87-4.08-2.28-5.48h11.07v-4.27h-1.79v-4.83ZM252.89,46.96c-1.51,0-2.73-1.22-2.73-2.73s1.22-2.73,2.73-2.73,2.73,1.22,2.73,2.73-1.22,2.73-2.73,2.73Z"/>
    <polygon class="st2" points="163.01 39.89 169.22 29.54 175.39 39.88 180.97 39.88 174.8 29.54 180.36 29.54 180.36 25.27 158.05 25.27 158.05 29.54 163.64 29.54 157.43 39.89 163.01 39.89"/>
    <path class="st2" d="M189.75,24.43h-5.58v7.31c-.5-.8-1.38-1.33-2.4-1.33-1.57,0-2.84,1.27-2.84,2.84s1.27,2.84,2.84,2.84c1.01,0,1.89-.53,2.4-1.33v12.16h-18.63v-4.65h-5.58v4.69c0,2.33,1.9,4.23,4.24,4.23h25.55v-4.27h0v-22.48Z"/>
    <path class="st2" d="M223.94,28.01c-.48-.74-1.31-1.22-2.25-1.22-1.49,0-2.7,1.21-2.7,2.7s1.21,2.7,2.7,2.7c.94,0,1.77-.49,2.25-1.22v3.64c-.48-.74-1.31-1.22-2.25-1.22-1.49,0-2.7,1.21-2.7,2.7s1.21,2.7,2.7,2.7c.94,0,1.77-.49,2.25-1.22v3.93h-24.17v4.27h24.17v5.44h5.58v-26.76h-5.58v3.58Z"/>
    <path class="st2" d="M307.92,30.38c-1.01,0-1.89.53-2.4,1.33v-7.29h-5.58v26.76h5.58v-16.46c.5.8,1.38,1.33,2.4,1.33,1.57,0,2.84-1.27,2.84-2.84s-1.27-2.84-2.84-2.84Z"/>
    <path class="st2" d="M83.02,36.01c0,3.77,3.06,6.83,6.83,6.83s6.83-3.06,6.83-6.83c0-1.7-.62-3.25-1.65-4.44h5.97v-4.28h-9.68c.74-.48,1.22-1.31,1.22-2.25,0-1.49-1.21-2.7-2.7-2.7s-2.7,1.21-2.7,2.7c0,.94.49,1.77,1.22,2.25h-9.68v4.28h5.97c-1.02,1.19-1.65,2.74-1.65,4.44ZM89.85,38.43c-1.34,0-2.42-1.08-2.42-2.42s1.08-2.42,2.42-2.42,2.42,1.08,2.42,2.42-1.08,2.42-2.42,2.42Z"/>
    <polygon class="st2" points="288.08 25.27 284.75 25.27 282.51 25.27 274.62 38.75 280.2 38.75 286.41 28.14 292.57 38.75 298.15 38.75 290.33 25.27 288.08 25.27"/>
    <path class="st2" d="M202.09,39.88h1.95s14,0,14,0v-3.94h-14.61v-1.39h14.6v-.92h0v-4.11s-.02-.29-.02-.29c0-2.18-1.76-3.94-3.94-3.94h-.28s-1.95,0-1.95,0h-14v3.94h14.61v1.39h-14.62v3.94h.01v1.1s.02.29.02.29c0,2.18,1.77,3.94,3.94,3.94h.28Z"/>
  </g>
  <g>
    <path class="st0" d="M53.32,20.86c-3.61,0-6.95,1.14-9.7,3.06-2.75-1.92-6.09-3.06-9.7-3.06-9.38,0-16.98,7.6-16.98,16.98s7.6,16.98,16.98,16.98c3.61,0,6.95-1.13,9.7-3.06,2.75,1.92,6.09,3.06,9.7,3.06,9.38,0,16.98-7.6,16.98-16.98s-7.6-16.98-16.98-16.98Z"/>
    <g>
      <path class="st1" d="M69.02,31.37c-.28-.67-.59-1.32-.95-1.95l-18.02,13.72-6.43,4.89-2.51,1.59-8.17,5.16c.33.02.65.03.99.03,1.05,0,2.07-.1,3.07-.28l4.74-4.3,1.89-1.71,5.9-3.98,19.5-13.17Z"/>
      <path class="st1" d="M69.32,32.15l-25.53,19.73c2.72,1.85,6,2.93,9.53,2.93,9.38,0,16.98-7.6,16.98-16.98,0-1.99-.34-3.91-.98-5.69Z"/>
      <path class="st1" d="M33.92,20.86c-9.38,0-16.98,7.6-16.98,16.98,0,2,.35,3.91.98,5.69l25.53-19.74c-2.72-1.85-6-2.93-9.53-2.93Z"/>
      <path class="st1" d="M43.62,34.59l5.75-3.79,12-7.91c-.7-.38-1.44-.71-2.2-.99l-10.23,8.03-5.32,4.18-7.24,4.85-15.15,10.15c.48.54.99,1.05,1.54,1.52l13.72-10.56,7.13-5.49Z"/>
      <path class="st1" d="M43.62,38.07l6.74-4.48,13.56-9.02c-.58-.47-1.2-.9-1.84-1.28l-12,9.3-6.45,5-6.74,4.49-13.55,9.02c.58.47,1.2.9,1.84,1.29l12-9.31,6.45-5Z"/>
      <path class="st1" d="M43.62,41.56l7.24-4.85,15.15-10.15c-.48-.54-.99-1.05-1.54-1.52l-13.73,10.55-7.13,5.48-5.75,3.8-12,7.92c.71.38,1.44.71,2.2.99l10.23-8.04,5.33-4.18Z"/>
      <path class="st1" d="M43.62,31.11l4.34-2.82,10.31-6.7c-.87-.26-1.77-.46-2.69-.58l-8.15,6.55-3.81,3.06-7.1,4.78-16.99,11.44c.38.61.8,1.19,1.25,1.74l15.61-11.94,7.23-5.53Z"/>
      <path class="st1" d="M43.62,27.62l2.51-1.58,8.17-5.15c-.32-.02-.65-.03-.98-.03-1.04,0-2.06.1-3.05.27l-4.76,4.3-1.89,1.71-5.9,3.98-19.5,13.18c.28.67.6,1.32.95,1.95l18.02-13.73,6.42-4.9Z"/>
      <path class="st1" d="M43.62,45.04l7.1-4.78,16.99-11.44c-.38-.61-.8-1.19-1.25-1.74l-15.61,11.94-7.23,5.53-4.34,2.82-10.31,6.7c.87.26,1.76.46,2.69.58l8.15-6.55,3.81-3.06Z"/>
    </g>
  </g>
</svg>